<svg xmlns="http://www.w3.org/2000/svg" xmlns:xlink="http://www.w3.org/1999/xlink" width="336" height="104" viewBox="0 0 336 104"><defs><clipPath id="b"><rect width="336" height="104"/></clipPath></defs><g id="a" clip-path="url(#b)"><path d="M78.531,184.027H98.923V147.182l-22.5,32.856A2.551,2.551,0,0,0,78.531,184.027Z" transform="translate(-67.979 -100.365)" fill="#fff"/><path d="M83.145,82.1V65.776c39.4,0,13.995-40.463,0-45.308V3.147C83.145.922,80.468-.6,78.029.226a.22.22,0,0,1-.035.01L55.587,8c-3.064,1.061-3.084,4.72-.032,5.806l20.122,7.156-7.362,16.5,1.78,6.381Zm0-52.049c9.972,10.475,9.987,25.232,0,35.722l.131-27.9Z" transform="translate(-36.303 8)" fill="#fff"/><path d="M10.25,66c0,18,12.5,30.5,30.5,30.5S71.25,84,71.25,66V25h-15V66c0,10-6.5,16.5-15.5,16.5S25.25,76,25.25,66l-.02-18L10.271,45.387Zm99,29h17l26-70h-16l-18.3,51.5h-.4L99.25,25h-16Zm55.5,0h15V49l22.5,28,22.5-28V95h15V25h-13.5l-24,30-24-30h-13.5Zm88-9.5s9,11,27,11c16.5,0,26.5-10,26.5-21.5,0-24.5-35-19-35-31,0-4,3-7,10.5-7,8,0,13,6,13,6l10-10s-8-9.5-23.5-9.5c-16,0-25.5,9.5-25.5,20.5,0,24.5,35,19,35,31,0,4.5-3.5,8-11.5,8a22.363,22.363,0,0,1-16.5-7.5Z" transform="translate(21.729)" fill="#fff"/></g></svg>