<svg xmlns="http://www.w3.org/2000/svg" width="60" height="56" viewBox="0 0 60 56"><defs><style>.a{fill:#fff;}</style></defs><g transform="translate(-2 -4)"><path class="a" d="M26,14a6,6,0,1,1,6,6,6,6,0,0,1-6-6ZM41,24H23a3,3,0,0,0-3,3V41a3,3,0,0,0,3,3h3V57a3,3,0,0,0,3,3h6a3,3,0,0,0,3-3V44h3a3,3,0,0,0,3-3V27A3,3,0,0,0,41,24Z"/><circle class="a" cx="6" cy="6" r="6" transform="translate(44 4)"/><circle class="a" cx="6" cy="6" r="6" transform="translate(8 4)"/><path class="a" d="M59,20H41a7,7,0,0,1,7,7V41a7,7,0,0,1-4,6.3V53a3,3,0,0,0,3,3h6a3,3,0,0,0,3-3V40h3a3,3,0,0,0,3-3V23a3,3,0,0,0-3-3ZM16,41V27a7,7,0,0,1,7-7H5a3,3,0,0,0-3,3V37a3,3,0,0,0,3,3H8V53a3,3,0,0,0,3,3h6a3,3,0,0,0,3-3V47.3A7,7,0,0,1,16,41Z"/></g></svg>