<svg xmlns="http://www.w3.org/2000/svg" width="24" height="24" viewBox="0 0 24 24"><defs><style>.a{fill:none;}.b{fill:#005f88;}</style></defs><g transform="translate(4 7.999)"><path class="a" d="M0,0H16.031V16H0Z" transform="translate(0 -0.066)"/><path class="b" d="M3.2,6.371V2.714a.586.586,0,0,1,.6-.571h3V1H9.2V2.143h3a.586.586,0,0,1,.6.571V6.371l.652.186a.569.569,0,0,1,.409.686l-.91,3.467A3.055,3.055,0,0,1,10.4,9.571a3.091,3.091,0,0,1-4.8,0,3.055,3.055,0,0,1-2.551,1.139l-.91-3.467a.569.569,0,0,1,.409-.686Zm1.2-.343L8,5l1.652.472,1.085.31.862.246V3.286H4.4V6.029ZM3.2,11.857a3.69,3.69,0,0,0,2.4-.873,3.735,3.735,0,0,0,4.8,0,3.69,3.69,0,0,0,2.4.873H14V13H12.8a4.963,4.963,0,0,1-2.4-.611,5.016,5.016,0,0,1-4.8,0A4.963,4.963,0,0,1,3.2,13H2V11.857Z" transform="translate(0.016 3.001)"/><g transform="translate(8 -7.999)"><path class="a" d="M0,0H12V12H0Z"/><path class="b" d="M3,5.7V2.5A.5.5,0,0,1,3.5,2H6V1H8V2h2.5a.5.5,0,0,1,.5.5V5.7l.543.163a.5.5,0,0,1,.341.6l-.758,3.033A2.5,2.5,0,0,1,9,8.5a2.5,2.5,0,0,1-4,0,2.5,2.5,0,0,1-2.125,1L2.116,6.461a.5.5,0,0,1,.341-.6Zm1-.3,3-.9,1.376.413.9.271L10,5.4V3H4ZM3,10.5a2.987,2.987,0,0,0,2-.764,3,3,0,0,0,4,0,2.987,2.987,0,0,0,2,.764h1v1H11a3.979,3.979,0,0,1-2-.535,4,4,0,0,1-4,0A3.979,3.979,0,0,1,3,11.5H2v-1Z" transform="translate(-0.997 -0.499)"/></g><g transform="translate(-4 -7.999)"><path class="a" d="M0,0H12V12H0Z"/><path class="b" d="M3.067,5.924V2.571A.529.529,0,0,1,3.6,2.048H6.267V1H8.4V2.048h2.667a.529.529,0,0,1,.533.524V5.924l.579.171a.523.523,0,0,1,.364.629L11.735,9.9A2.681,2.681,0,0,1,9.467,8.857a2.7,2.7,0,0,1-4.267,0A2.681,2.681,0,0,1,2.932,9.9L2.124,6.723a.523.523,0,0,1,.364-.629ZM4.133,5.61l3.2-.943L8.8,5.1l.965.284.766.226V3.1h-6.4ZM3.067,10.952a3.222,3.222,0,0,0,2.133-.8,3.243,3.243,0,0,0,4.267,0,3.222,3.222,0,0,0,2.133.8h1.067V12H11.6a4.307,4.307,0,0,1-2.133-.56,4.34,4.34,0,0,1-4.267,0A4.307,4.307,0,0,1,3.067,12H2V10.952Z" transform="translate(-1.333 -0.667)"/></g></g></svg>