<svg xmlns="http://www.w3.org/2000/svg" width="21" height="24" viewBox="0 0 21 24"><defs><style>.a{fill:#F7220B;}</style></defs><path class="a" d="M24.25,3H19V2.212A2.212,2.212,0,0,0,16.787,0H12.212A2.212,2.212,0,0,0,10,2.213V3H4.75a.75.75,0,1,0,0,1.5H6.137l1.05,16.95A2.625,2.625,0,0,0,9.738,24h9.525a2.625,2.625,0,0,0,2.588-2.55L22.862,4.5H24.25a.75.75,0,1,0,0-1.5ZM11.5,2.212a.712.712,0,0,1,.712-.713h4.575a.713.713,0,0,1,.713.713V3h-6ZM11.538,21H11.5a.75.75,0,0,1-.75-.713L10,6.787a.751.751,0,0,1,1.5-.075l.75,13.5a.75.75,0,0,1-.712.787Zm3.712-.75a.75.75,0,0,1-1.5,0V6.75a.75.75,0,0,1,1.5,0Zm3,.037A.75.75,0,0,1,17.5,21h-.037a.75.75,0,0,1-.713-.787l.75-13.5a.751.751,0,0,1,1.5.075Z" transform="translate(-4)"/></svg>
