<svg xmlns="http://www.w3.org/2000/svg" width="18.286" height="24" viewBox="0 0 18.286 24"><defs><style>.a{fill:#092D4B;}</style></defs><path class="a" d="M26.409,7.439a3.429,3.429,0,1,0-4.88,3.1c-.117,2.263-1.814,3.031-4.764,4.137a18.648,18.648,0,0,0-3.784,1.763V10.547a3.429,3.429,0,1,0-2.857,0V21.475a3.43,3.43,0,1,0,2.88.011c.117-2.261,1.816-3.031,4.764-4.137,2.9-1.089,6.487-2.444,6.629-6.794a3.426,3.426,0,0,0,2.013-3.116ZM11.552,5.46A1.979,1.979,0,1,1,9.575,7.439,1.977,1.977,0,0,1,11.552,5.46Zm0,21.1a1.979,1.979,0,1,1,1.977-1.979,1.978,1.978,0,0,1-1.977,1.979ZM22.981,9.417a1.979,1.979,0,1,1,1.977-1.979,1.978,1.978,0,0,1-1.977,1.979Z" transform="translate(-8.124 -4.01)"/></svg>
